<svg width="615" height="1335" viewBox="0 0 615 1335" fill="none" xmlns="http://www.w3.org/2000/svg">
<path d="M766.241 0C801.954 171.43 801.954 373.749 738.004 528.19C737.173 529.735 736.343 529.735 735.512 531.279C727.207 552.901 717.241 569.889 707.275 586.878C703.122 593.056 698.97 597.689 694.817 603.866C686.512 614.677 678.207 623.944 669.901 631.666C649.139 648.655 628.376 661.01 605.952 665.643C582.697 668.732 561.104 664.099 537.849 674.91C510.442 688.809 486.357 705.798 463.933 739.775C463.103 741.319 462.272 739.775 461.442 741.319C449.815 761.397 438.187 778.385 429.052 803.096C428.221 804.641 427.391 804.641 426.56 806.185C416.594 830.896 409.95 854.062 401.645 880.317C399.153 888.039 398.322 895.761 396.661 903.483C364.271 1040.94 370.085 1196.92 398.322 1334.38M741.326 0C777.038 171.43 777.038 373.749 713.088 528.19C712.258 529.735 711.427 529.735 710.597 531.279C702.292 552.901 692.325 569.889 682.359 586.878C678.207 593.056 674.054 597.689 669.901 603.866C661.596 614.677 653.291 623.944 644.986 631.666C624.223 648.655 603.46 661.01 581.036 665.643C557.782 668.732 536.188 664.099 512.934 674.91C485.527 688.809 461.442 705.798 439.018 739.775C438.187 741.319 437.357 739.775 436.526 741.319C424.899 761.397 413.272 778.385 404.136 803.096C403.306 804.641 402.475 804.641 401.645 806.185C391.678 830.896 385.034 854.062 376.729 880.317C374.237 888.039 373.407 895.761 371.746 903.483C339.356 1040.94 345.169 1196.92 373.407 1334.38M716.41 0C752.123 171.43 752.123 373.749 688.173 528.19C687.342 529.735 686.512 529.735 685.681 531.279C677.376 552.901 667.41 569.889 657.444 586.878C653.291 593.056 649.139 597.689 644.986 603.866C636.681 614.677 628.376 623.944 620.07 631.666C599.308 648.655 578.545 661.01 556.121 665.643C532.866 668.732 511.273 664.099 488.018 674.91C460.611 688.809 436.526 705.798 414.102 739.775C413.272 741.319 412.441 739.775 411.611 741.319C399.984 761.397 388.356 778.385 379.221 803.096C378.39 804.641 377.56 804.641 376.729 806.185C366.763 830.896 360.119 854.062 351.814 880.317C349.322 888.039 348.491 895.761 346.83 903.483C314.44 1040.94 320.254 1196.92 348.491 1334.38M691.495 0C727.207 171.43 727.207 373.749 663.257 528.19C662.427 529.735 661.596 529.735 660.766 531.279C652.461 552.901 642.494 569.889 632.528 586.878C628.376 593.056 624.223 597.689 620.07 603.866C611.765 614.677 603.46 623.944 595.155 631.666C574.392 648.655 553.629 661.01 531.205 665.643C507.951 668.732 486.357 664.099 463.103 674.91C435.696 688.809 411.611 705.798 389.187 739.775C388.356 741.319 387.526 739.775 386.695 741.319C375.068 761.397 363.441 778.385 354.305 803.096C353.475 804.641 352.644 804.641 351.814 806.185C341.847 830.896 335.203 854.062 326.898 880.317C324.406 888.039 323.576 895.761 321.915 903.483C289.525 1040.94 295.338 1196.92 323.576 1334.38M666.579 0C702.292 171.43 702.292 373.749 638.342 528.19C637.511 529.735 636.681 529.735 635.85 531.279C627.545 552.901 617.579 569.889 607.613 586.878C603.46 593.056 599.308 597.689 595.155 603.866C586.85 614.677 578.545 623.944 570.239 631.666C549.477 648.655 528.714 661.01 506.29 665.643C483.035 668.732 461.442 664.099 438.187 674.91C410.78 688.809 386.695 705.798 364.271 739.775C363.441 741.319 362.61 739.775 361.78 741.319C350.152 761.397 338.525 778.385 329.39 803.096C328.559 804.641 327.729 804.641 326.898 806.185C316.932 830.896 310.288 854.062 301.983 880.317C299.491 888.039 298.66 895.761 296.999 903.483C264.609 1040.94 270.423 1196.92 298.66 1334.38M641.664 0C677.376 171.43 677.376 373.749 613.426 528.19C612.596 529.735 611.765 529.735 610.935 531.279C602.63 552.901 592.663 569.889 582.697 586.878C578.545 593.056 574.392 597.689 570.239 603.866C561.934 614.677 553.629 623.944 545.324 631.666C524.561 648.655 503.798 661.01 481.374 665.643C458.12 668.732 436.526 664.099 413.272 674.91C385.865 688.809 361.78 705.798 339.356 739.775C338.525 741.319 337.695 739.775 336.864 741.319C325.237 761.397 313.61 778.385 304.474 803.096C303.644 804.641 302.813 804.641 301.983 806.185C292.016 830.896 285.372 854.062 277.067 880.317C274.575 888.039 273.745 895.761 272.084 903.483C239.694 1040.94 245.507 1196.92 273.745 1334.38M616.748 0C652.461 171.43 652.461 373.749 588.511 528.19C587.68 529.735 586.85 529.735 586.019 531.279C577.714 552.901 567.748 569.889 557.782 586.878C553.629 593.056 549.477 597.689 545.324 603.866C537.019 614.677 528.714 623.944 520.408 631.666C499.646 648.655 478.883 661.01 456.459 665.643C433.204 668.732 411.611 664.099 388.356 674.91C360.949 688.809 336.864 705.798 314.44 739.775C313.61 741.319 312.779 739.775 311.949 741.319C300.321 761.397 288.694 778.385 279.559 803.096C278.728 804.641 277.898 804.641 277.067 806.185C267.101 830.896 260.457 854.062 252.151 880.317C249.66 888.039 248.829 895.761 247.168 903.483C214.778 1040.94 220.592 1196.92 248.829 1334.38M591.833 0C627.545 171.43 627.545 373.749 563.595 528.19C562.765 529.735 561.934 529.735 561.104 531.279C552.799 552.901 542.832 569.889 532.866 586.878C528.714 593.056 524.561 597.689 520.408 603.866C512.103 614.677 503.798 623.944 495.493 631.666C474.73 648.655 453.967 661.01 431.543 665.643C408.289 668.732 386.695 664.099 363.441 674.91C336.034 688.809 311.949 705.798 289.525 739.775C288.694 741.319 287.864 739.775 287.033 741.319C275.406 761.397 263.779 778.385 254.643 803.096C253.813 804.641 252.982 804.641 252.151 806.185C242.185 830.896 235.541 854.062 227.236 880.317C224.744 888.039 223.914 895.761 222.253 903.483C189.863 1040.94 195.676 1196.92 223.914 1334.38M566.917 0C602.63 171.43 602.63 373.749 538.68 528.19C537.849 529.735 537.019 529.735 536.188 531.279C527.883 552.901 517.917 569.889 507.951 586.878C503.798 593.056 499.646 597.689 495.493 603.866C487.188 614.677 478.883 623.944 470.577 631.666C449.814 648.655 429.052 661.01 406.628 665.643C383.373 668.732 361.78 664.099 338.525 674.91C311.118 688.809 287.033 705.798 264.609 739.775C263.779 741.319 262.948 739.775 262.118 741.319C250.49 761.397 238.863 778.385 229.728 803.096C228.897 804.641 228.067 804.641 227.236 806.185C217.27 830.896 210.626 854.062 202.32 880.317C199.829 888.039 198.998 895.761 197.337 903.483C164.947 1040.94 170.761 1196.92 198.998 1334.38M542.002 0C577.714 171.43 577.714 373.749 513.764 528.19C512.934 529.735 512.103 529.735 511.273 531.279C502.968 552.901 493.001 569.889 483.035 586.878C478.883 593.056 474.73 597.689 470.577 603.866C462.272 614.677 453.967 623.944 445.662 631.666C424.899 648.655 404.136 661.01 381.712 665.643C358.458 668.732 336.864 664.099 313.61 674.91C286.203 688.809 262.118 705.798 239.694 739.775C238.863 741.319 238.033 739.775 237.202 741.319C225.575 761.397 213.948 778.385 204.812 803.096C203.982 804.641 203.151 804.641 202.32 806.185C192.354 830.896 185.71 854.062 177.405 880.317C174.913 888.039 174.083 895.761 172.422 903.483C140.032 1040.94 145.845 1196.92 174.083 1334.38M517.086 0C552.799 171.43 552.799 373.749 488.849 528.19C488.018 529.735 487.188 529.735 486.357 531.279C478.052 552.901 468.086 569.889 458.12 586.878C453.967 593.056 449.815 597.689 445.662 603.866C437.357 614.677 429.052 623.944 420.746 631.666C399.984 648.655 379.221 661.01 356.797 665.643C333.542 668.732 311.949 664.099 288.694 674.91C261.287 688.809 237.202 705.798 214.778 739.775C213.948 741.319 213.117 739.775 212.287 741.319C200.659 761.397 189.032 778.385 179.897 803.096C179.066 804.641 178.235 804.641 177.405 806.185C167.439 830.896 160.795 854.062 152.489 880.317C149.998 888.039 149.167 895.761 147.506 903.483C115.116 1040.94 120.93 1196.92 149.167 1334.38M492.171 0C527.883 171.43 527.883 373.749 463.933 528.19C463.103 529.735 462.272 529.735 461.442 531.279C453.137 552.901 443.17 569.889 433.204 586.878C429.052 593.056 424.899 597.689 420.746 603.866C412.441 614.677 404.136 623.944 395.831 631.666C375.068 648.655 354.305 661.01 331.881 665.643C308.627 668.732 287.033 664.099 263.779 674.91C236.372 688.809 212.287 705.798 189.863 739.775C189.032 741.319 188.202 739.775 187.371 741.319C175.744 761.397 164.117 778.385 154.981 803.096C154.15 804.641 153.32 804.641 152.489 806.185C142.523 830.896 135.879 854.062 127.574 880.317C125.082 888.039 124.252 895.761 122.591 903.483C90.2007 1040.94 96.0143 1196.92 124.252 1334.38M467.255 0C502.968 171.43 502.968 373.749 439.018 528.19C438.187 529.735 437.357 529.735 436.526 531.279C428.221 552.901 418.255 569.889 408.289 586.878C404.136 593.056 399.984 597.689 395.831 603.866C387.526 614.677 379.221 623.944 370.915 631.666C350.152 648.655 329.39 661.01 306.966 665.643C283.711 668.732 262.118 664.099 238.863 674.91C211.456 688.809 187.371 705.798 164.947 739.775C164.117 741.319 163.286 739.775 162.456 741.319C150.828 761.397 139.201 778.385 130.065 803.096C129.235 804.641 128.404 804.641 127.574 806.185C117.608 830.896 110.964 854.062 102.658 880.317C100.167 888.039 99.3364 895.761 97.6753 903.483C65.2852 1040.94 71.0988 1196.92 99.3364 1334.38M442.34 0C478.052 171.43 478.052 373.749 414.102 528.19C413.272 529.735 412.441 529.735 411.611 531.279C403.306 552.901 393.339 569.889 383.373 586.878C379.221 593.056 375.068 597.689 370.915 603.866C362.61 614.677 354.305 623.944 346 631.666C325.237 648.655 304.474 661.01 282.05 665.643C258.796 668.732 237.202 664.099 213.948 674.91C186.541 688.809 162.456 705.798 140.032 739.775C139.201 741.319 138.371 739.775 137.54 741.319C125.913 761.397 114.286 778.385 105.15 803.096C104.319 804.641 103.489 804.641 102.658 806.185C92.6922 830.896 86.0481 854.062 77.7429 880.317C75.2514 888.039 74.4209 895.761 72.7598 903.483C40.3697 1040.94 46.1833 1196.92 74.4209 1334.38M417.424 0C453.137 171.43 453.137 373.749 389.187 528.19C388.356 529.735 387.526 529.735 386.695 531.279C378.39 552.901 368.424 569.889 358.458 586.878C354.305 593.056 350.152 597.689 346 603.866C337.695 614.677 329.39 623.944 321.084 631.666C300.321 648.655 279.559 661.01 257.135 665.643C233.88 668.732 212.287 664.099 189.032 674.91C161.625 688.809 137.54 705.798 115.116 739.775C114.286 741.319 113.455 739.775 112.625 741.319C100.997 761.397 89.3702 778.385 80.2345 803.096C79.404 804.641 78.5734 804.641 77.7429 806.185C67.7767 830.896 61.1326 854.062 52.8274 880.317C50.3359 888.039 49.5054 895.761 47.8443 903.483C15.4542 1040.94 21.2678 1196.92 49.5054 1334.38M392.509 0.000206965C428.221 171.43 428.221 373.749 364.271 528.19C363.441 529.735 362.61 529.735 361.78 531.279C353.475 552.901 343.508 569.89 333.542 586.878C329.39 593.056 325.237 597.689 321.084 603.867C312.779 614.678 304.474 623.944 296.169 631.666C275.406 648.655 254.643 661.01 232.219 665.643C208.965 668.732 187.371 664.099 164.117 674.91C136.71 688.81 112.625 705.798 90.2007 739.775C89.3702 741.32 88.5397 739.775 87.7091 741.32C76.0819 761.397 64.4547 778.386 55.319 803.096C54.4885 804.641 53.6579 804.641 52.8274 806.185C42.8612 830.896 36.2171 854.062 27.9119 880.317C25.4204 888.039 24.5898 895.761 22.9288 903.483C-9.46135 1040.94 -3.64773 1196.92 24.5898 1334.38" stroke="url(#paint0_linear_490_800)" stroke-width="0.5" stroke-miterlimit="10"/>
<defs>
<linearGradient id="paint0_linear_490_800" x1="790.256" y1="0" x2="-173.965" y2="689.546" gradientUnits="userSpaceOnUse">
<stop stop-color="#1BF4F9"/>
<stop offset="1" stop-color="#002BDC" stop-opacity="0"/>
</linearGradient>
</defs>
</svg>
