<svg width="91" height="91" viewBox="0 0 94 94" fill="none" xmlns="http://www.w3.org/2000/svg">
    <path d="M43.243 84.1537L42.2418 90.5098L41.4721 90.3886L41.9688 87.2354L41.8943 87.2237L38.5424 89.9271L37.5368 89.7688L40.6576 87.3215L38.538 83.4127L39.469 83.5593L41.2134 86.862L42.1487 86.0933L42.4733 84.0325L43.243 84.1537Z" fill="white" />
    <path d="M35.6418 82.5995L33.385 88.6252L29.7484 87.2631L29.9908 86.6159L32.8978 87.7046L33.6603 85.6686L30.9417 84.6504L31.1841 84.0031L33.9028 85.0213L34.6697 82.9735L31.7157 81.8671L31.9582 81.2198L35.6418 82.5995Z" fill="white" />
    <path d="M28.867 79.7151L25.4747 85.1827L22.1749 83.1354L22.5393 82.548L25.177 84.1845L26.3232 82.3371L23.8564 80.8066L24.2208 80.2193L26.6876 81.7498L27.8405 79.8916L25.1601 78.2286L25.5245 77.6413L28.867 79.7151Z" fill="white" />
    <path d="M22.7858 75.5605L18.3892 80.2586L16.8018 78.773C16.4332 78.4281 16.1942 78.0797 16.0847 77.7276C15.9723 77.3757 15.9647 77.0344 16.0619 76.7037C16.1591 76.373 16.3372 76.0692 16.5963 75.7924C16.8553 75.5156 17.1473 75.317 17.4723 75.1965C17.7958 75.0747 18.1375 75.0559 18.4974 75.1403C18.8559 75.2262 19.2179 75.4402 19.5834 75.7823L20.7212 76.8471L20.2489 77.3518L19.1295 76.3041C18.8771 76.068 18.6337 75.9219 18.3992 75.866C18.1647 75.81 17.9436 75.824 17.736 75.908C17.5253 75.992 17.332 76.1281 17.156 76.3162C16.98 76.5043 16.8577 76.7054 16.7892 76.9196C16.7192 77.1324 16.7221 77.3531 16.7978 77.5817C16.8721 77.8119 17.037 78.0465 17.2924 78.2855L18.2926 79.2215L22.2169 75.0281L22.7858 75.5605Z" fill="white" />
    <path d="M9.03247 65.6805C8.76967 65.8641 8.62406 66.1156 8.59564 66.435C8.56722 66.7544 8.64502 67.0858 8.82906 67.4292C8.96363 67.6803 9.12199 67.8782 9.30414 68.023C9.48531 68.1659 9.67516 68.2519 9.87371 68.2809C10.0713 68.3081 10.2605 68.2732 10.4414 68.1762C10.5928 68.0951 10.7037 67.9893 10.774 67.859C10.8415 67.7277 10.8806 67.5856 10.8912 67.4326C10.9 67.2805 10.8939 67.1293 10.8727 66.9791C10.8498 66.8298 10.8239 66.6951 10.7952 66.575L10.6416 65.9159C10.6012 65.7475 10.5667 65.5545 10.538 65.3369C10.5083 65.1176 10.5081 64.8931 10.5372 64.6637C10.5634 64.4333 10.6388 64.2147 10.7631 64.0079C10.8875 63.801 11.0826 63.6263 11.3485 63.4838C11.6549 63.3196 11.9749 63.2515 12.3084 63.2795C12.6408 63.3057 12.9621 63.4329 13.2722 63.6612C13.5813 63.8876 13.8526 64.2187 14.0861 64.6544C14.3038 65.0605 14.4268 65.4473 14.455 65.8148C14.4822 66.1804 14.4241 66.511 14.2807 66.8065C14.1363 67.1001 13.9149 67.3412 13.6167 67.5295L13.2367 66.8206C13.441 66.6874 13.5796 66.5204 13.6526 66.3197C13.7228 66.1181 13.7401 65.9021 13.7045 65.6716C13.6661 65.4403 13.5865 65.212 13.4658 64.9868C13.3253 64.7247 13.1567 64.512 12.96 64.3489C12.7614 64.1868 12.5528 64.0859 12.3343 64.0462C12.1139 64.0075 11.9004 64.0435 11.6936 64.1543C11.5053 64.2553 11.3803 64.39 11.3185 64.5586C11.2568 64.7271 11.235 64.917 11.2532 65.1283C11.2713 65.3396 11.3062 65.5597 11.3576 65.7888L11.5323 66.5935C11.6424 67.1048 11.6485 67.553 11.5507 67.9381C11.453 68.3232 11.213 68.6182 10.8309 68.823C10.5133 68.9932 10.1904 69.0558 9.86209 69.0108C9.53093 68.9649 9.22165 68.8312 8.93424 68.6098C8.644 68.3875 8.40191 68.0954 8.20798 67.7336C8.01206 67.368 7.90345 67.008 7.88215 66.6535C7.859 66.2999 7.91551 65.9797 8.05169 65.6928C8.18687 65.4041 8.39506 65.1785 8.67626 65.0159L9.03247 65.6805Z" fill="white" />
    <path d="M5.9077 55.7499L6.11877 56.4999C5.91552 56.605 5.74784 56.7359 5.61573 56.8928C5.48306 57.0476 5.38341 57.2193 5.31677 57.4077C5.24755 57.5948 5.21138 57.791 5.20827 57.9964C5.20515 58.2018 5.23253 58.4073 5.2904 58.613C5.39594 58.988 5.58631 59.3011 5.86152 59.5522C6.13615 59.8013 6.48321 59.9637 6.90267 60.0393C7.32158 60.1129 7.79919 60.0742 8.3355 59.9233C8.87182 59.7723 9.2995 59.5562 9.61853 59.275C9.93701 58.9917 10.1484 58.6722 10.2529 58.3164C10.3567 57.9586 10.3559 57.5922 10.2503 57.2172C10.1924 57.0115 10.1086 56.8219 9.99883 56.6482C9.88903 56.4746 9.75685 56.3258 9.60226 56.2017C9.4451 56.0762 9.26954 55.982 9.07558 55.9191C8.87904 55.8547 8.66767 55.8304 8.44147 55.8462L8.23039 55.0962C8.56283 55.0636 8.87505 55.0867 9.16705 55.1655C9.45905 55.2444 9.72396 55.37 9.96179 55.5424C10.1976 55.7154 10.3997 55.9272 10.5682 56.1779C10.7361 56.4266 10.864 56.7072 10.952 57.0197C11.1006 57.548 11.1038 58.0541 10.9615 58.538C10.8191 59.0219 10.5433 59.4488 10.1338 59.8186C9.72438 60.1884 9.19303 60.4653 8.53977 60.6491C7.88651 60.8329 7.28877 60.8739 6.74656 60.7719C6.20434 60.6699 5.74632 60.4495 5.37249 60.1109C4.99866 59.7722 4.73742 59.3387 4.58875 58.8105C4.50081 58.4979 4.46361 58.1918 4.47718 57.8921C4.49017 57.5903 4.55317 57.3039 4.66616 57.0327C4.77715 56.7621 4.93665 56.5171 5.14467 56.2975C5.35068 56.0785 5.60502 55.896 5.9077 55.7499Z" fill="white" />
    <path d="M9.64263 51.215L3.2185 51.5793L3.09541 49.4086C3.06695 48.9067 3.12933 48.4899 3.28255 48.1581C3.43367 47.8265 3.65332 47.5749 3.9415 47.4033C4.22967 47.2317 4.56301 47.1352 4.94152 47.1137C5.32002 47.0923 5.66005 47.1506 5.96159 47.2887C6.26313 47.4269 6.50662 47.6512 6.69205 47.9617C6.8754 48.2723 6.98118 48.6764 7.00941 49.1741L7.10901 50.9307L6.40637 50.9705L6.30819 49.239C6.28874 48.8961 6.2229 48.6229 6.11067 48.4195C5.99831 48.2139 5.84746 48.0694 5.6581 47.9857C5.46653 47.9 5.24213 47.8645 4.98492 47.8791C4.7277 47.8937 4.50562 47.9545 4.31869 48.0616C4.13176 48.1687 3.992 48.3309 3.89941 48.548C3.80474 48.7653 3.76724 49.0474 3.78693 49.3946L3.86448 50.7622L9.59852 50.4371L9.64263 51.215ZM6.58532 48.3548L9.38152 46.6102L9.43275 47.5136L6.63513 49.2331L6.58532 48.3548Z" fill="white" />
    <path d="M7.21025 37.5984C7.8801 37.7072 8.43934 37.9222 8.88796 38.2434C9.33658 38.5645 9.65896 38.9575 9.85508 39.4222C10.0512 39.887 10.1053 40.3902 10.0173 40.9319C9.92927 41.4735 9.7187 41.9338 9.38556 42.3125C9.05241 42.6913 8.62223 42.962 8.09502 43.1246C7.56781 43.2873 6.96927 43.3142 6.29942 43.2053C5.62957 43.0965 5.07033 42.8815 4.62171 42.5604C4.17309 42.2392 3.85071 41.8463 3.65459 41.3815C3.45847 40.9168 3.40441 40.4136 3.4924 39.8719C3.5804 39.3302 3.79097 38.87 4.12411 38.4913C4.45726 38.1125 4.88744 37.8418 5.41465 37.6792C5.94186 37.5165 6.5404 37.4896 7.21025 37.5984ZM7.08934 38.3427C6.5394 38.2534 6.06031 38.27 5.65208 38.3925C5.24418 38.513 4.91771 38.7135 4.67265 38.9942C4.42794 39.2727 4.27434 39.6042 4.21188 39.9888C4.14941 40.3733 4.18999 40.7375 4.33361 41.0812C4.47758 41.4229 4.72378 41.7165 5.07223 41.962C5.42102 42.2054 5.87039 42.3717 6.42033 42.4611C6.97027 42.5504 7.44919 42.5348 7.85709 42.4144C8.26532 42.2918 8.59179 42.0913 8.83651 41.8127C9.08156 41.5321 9.23533 41.1995 9.29779 40.815C9.36026 40.4304 9.31951 40.0673 9.17555 39.7256C9.03193 39.3819 8.78572 39.0883 8.43693 38.8449C8.08848 38.5994 7.63928 38.432 7.08934 38.3427Z" fill="white" />
    <path d="M11.3038 35.1103L5.30097 32.7934L5.58154 32.0665L10.9395 34.1345L12.0165 31.3441L12.6614 31.593L11.3038 35.1103Z" fill="white" />
    <path d="M14.1009 28.7199L8.6321 25.3296L9.04264 24.6673L13.924 27.6934L15.5 25.1513L16.0874 25.5155L14.1009 28.7199Z" fill="white" />
    <path d="M13.7049 18.1842L18.6044 22.3552L18.0993 22.9485L13.1998 18.7775L13.7049 18.1842Z" fill="white" />
    <path d="M20.6914 11.6097L24.8095 16.5537L24.2301 17.0363L18.3027 15.3985L18.2544 15.4388L21.4877 19.3206L20.8891 19.8193L16.7709 14.8753L17.3503 14.3927L23.2955 16.032L23.3438 15.9918L20.1024 12.1003L20.6914 11.6097Z" fill="white" />
    <path d="M29.6163 8.7208C29.4594 8.56293 29.2928 8.43461 29.1164 8.33581C28.9409 8.2342 28.7571 8.16494 28.565 8.12801C28.3747 8.09014 28.1785 8.08694 27.9762 8.11842C27.774 8.14991 27.5691 8.21793 27.3614 8.32249C27.0209 8.49393 26.7556 8.73775 26.5654 9.05396C26.3752 9.37017 26.284 9.7409 26.2917 10.1661C26.2995 10.5914 26.4286 11.0528 26.6792 11.5505C26.9298 12.0481 27.2245 12.4261 27.5634 12.6847C27.9023 12.9432 28.2581 13.0888 28.631 13.1214C29.004 13.1541 29.3681 13.081 29.7236 12.902C30.0528 12.7362 30.3075 12.52 30.4875 12.2535C30.6685 11.9842 30.7641 11.6851 30.7744 11.3563C30.7857 11.0246 30.7028 10.683 30.5257 10.3313L30.7615 10.2688L29.0329 11.1392L28.7221 10.5218L30.9109 9.41969L31.2217 10.037C31.4601 10.5103 31.5663 10.9728 31.5404 11.4244C31.5164 11.875 31.3761 12.2857 31.1195 12.6564C30.8639 13.0243 30.5079 13.3232 30.0514 13.553C29.5425 13.8092 29.0351 13.9146 28.5292 13.8692C28.0251 13.8229 27.5543 13.6331 27.1169 13.2999C26.6813 12.9658 26.3109 12.4957 26.0057 11.8896C25.7768 11.435 25.6318 10.9956 25.5706 10.5714C25.5104 10.1445 25.528 9.7463 25.6235 9.37697C25.7189 9.00763 25.8857 8.67744 26.1237 8.38639C26.3618 8.09534 26.6651 7.85703 27.0336 7.67146C27.3367 7.51886 27.6422 7.42245 27.9503 7.38224C28.2593 7.33922 28.5586 7.34915 28.8482 7.41203C29.1388 7.4721 29.4112 7.58233 29.6655 7.74273C29.9189 7.90126 30.1419 8.10671 30.3346 8.35908L29.6163 8.7208Z" fill="white" />
    <path d="M42.214 6.61136L42.3139 7.29529L39.5284 7.70239L39.4285 7.01846L42.214 6.61136Z" fill="white" />
    <path d="M50.8197 9.6117L51.882 3.26555L52.6505 3.39418L52.1235 6.54247L52.1979 6.55492L55.5757 3.88383L56.5797 4.05189L53.4355 6.46902L55.5174 10.398L54.5878 10.2424L52.8753 6.92316L51.9326 7.6828L51.5882 9.74034L50.8197 9.6117Z" fill="white" />
    <path d="M58.4054 11.2391L60.7201 5.23537L64.3434 6.63234L64.0948 7.27727L61.1985 6.1606L60.4163 8.18918L63.125 9.23352L62.8764 9.87845L60.1677 8.83411L59.381 10.8744L62.3242 12.0092L62.0756 12.6541L58.4054 11.2391Z" fill="white" />
    <path d="M65.1523 14.1885L68.5971 8.75386L71.877 10.8328L71.507 11.4166L68.8852 9.7548L67.7212 11.5911L70.1732 13.1453L69.8031 13.7291L67.3512 12.1749L66.1805 14.0219L68.8447 15.7106L68.4747 16.2944L65.1523 14.1885Z" fill="white" />
    <path d="M71.1929 18.4015L75.6346 13.7459L77.2076 15.2467C77.5729 15.5952 77.8085 15.9459 77.9146 16.299C78.0236 16.652 78.028 16.9933 77.9276 17.3231C77.8272 17.6529 77.6461 17.9549 77.3844 18.2292C77.1227 18.5035 76.8288 18.6993 76.5027 18.8166C76.1781 18.9354 75.8362 18.9508 75.4771 18.8629C75.1195 18.7736 74.7595 18.5561 74.3973 18.2106L73.2698 17.1348L73.747 16.6347L74.8563 17.6931C75.1063 17.9317 75.3483 18.08 75.5823 18.1383C75.8163 18.1965 76.0375 18.1846 76.2459 18.1026C76.4573 18.0206 76.6519 17.8864 76.8298 17.7C77.0076 17.5136 77.1318 17.3137 77.2023 17.1002C77.2744 16.8881 77.2736 16.6674 77.2001 16.438C77.128 16.2071 76.9654 15.9709 76.7123 15.7295L75.7212 14.7839L71.7567 18.9393L71.1929 18.4015Z" fill="white" />
    <path d="M84.8506 28.4135C85.1152 28.2324 85.2632 27.9823 85.2947 27.6632C85.3262 27.344 85.2516 27.0119 85.0709 26.6668C84.9387 26.4144 84.7823 26.215 84.6015 26.0685C84.4217 25.9238 84.2327 25.836 84.0345 25.8051C83.8372 25.776 83.6476 25.809 83.4658 25.9043C83.3136 25.9839 83.2017 26.0886 83.1302 26.2183C83.0614 26.3489 83.021 26.4906 83.0088 26.6436C82.9986 26.7955 83.0033 26.9468 83.023 27.0972C83.0445 27.2467 83.069 27.3816 83.0966 27.502L83.2439 28.1625C83.2826 28.3314 83.3153 28.5247 83.3419 28.7425C83.3694 28.9621 83.3675 29.1866 83.3362 29.4157C83.3077 29.6458 83.2303 29.8637 83.1039 30.0693C82.9776 30.275 82.7808 30.4478 82.5136 30.5877C82.2056 30.749 81.885 30.814 81.5518 30.7828C81.2196 30.7534 80.8995 30.6231 80.5917 30.3919C80.2848 30.1625 80.0166 29.8288 79.7873 29.3909C79.5736 28.9827 79.4544 28.5947 79.4297 28.227C79.4059 27.8611 79.4672 27.5311 79.6135 27.237C79.7607 26.9447 79.9844 26.7059 80.2844 26.5204L80.6575 27.2329C80.452 27.3642 80.3118 27.5298 80.2368 27.7298C80.1647 27.9307 80.1453 28.1466 80.1787 28.3774C80.2149 28.609 80.2923 28.838 80.4108 29.0644C80.5488 29.3279 80.7153 29.5421 80.9105 29.7071C81.1075 29.8711 81.3151 29.974 81.5332 30.0159C81.7532 30.0567 81.9671 30.0227 82.1749 29.9139C82.3642 29.8148 82.4905 29.6813 82.5539 29.5133C82.6173 29.3454 82.6409 29.1557 82.6247 28.9442C82.6086 28.7328 82.5759 28.5123 82.5266 28.2828L82.3597 27.4764C82.2546 26.9641 82.2527 26.5158 82.3542 26.1317C82.4557 25.7475 82.6985 25.4549 83.0826 25.2537C83.4017 25.0866 83.7252 25.0272 84.0531 25.0754C84.3838 25.1244 84.6918 25.2611 84.9771 25.4853C85.2651 25.7103 85.5044 26.0047 85.6949 26.3684C85.8872 26.7358 85.9924 27.0969 86.0103 27.4516C86.03 27.8054 85.9704 28.125 85.8315 28.4106C85.6935 28.698 85.4832 28.9216 85.2004 29.0815L84.8506 28.4135Z" fill="white" />
    <path d="M87.8798 38.3737L87.6759 37.6216C87.8802 37.5185 88.0491 37.3892 88.1827 37.2336C88.3169 37.0801 88.4182 36.9094 88.4866 36.7216C88.5577 36.5352 88.5957 36.3393 88.6008 36.134C88.6059 35.9286 88.5805 35.7228 88.5246 35.5166C88.4227 35.1406 88.2353 34.8257 87.9626 34.572C87.6903 34.3202 87.3449 34.1545 86.9262 34.0749C86.508 33.9973 86.03 34.0313 85.4923 34.1771C84.9545 34.3229 84.5248 34.5348 84.2031 34.813C83.8819 35.0932 83.6674 35.4107 83.5595 35.7654C83.4522 36.1222 83.4496 36.4886 83.5515 36.8646C83.6074 37.0708 83.6894 37.2613 83.7975 37.436C83.9056 37.6106 84.0364 37.7607 84.1897 37.8863C84.3457 38.0133 84.5203 38.1092 84.7137 38.1739C84.9096 38.2402 85.1207 38.2665 85.3471 38.2529L85.5509 39.0049C85.2182 39.0344 84.9062 39.0083 84.615 38.9266C84.3237 38.845 84.06 38.7168 83.8239 38.5421C83.5898 38.3668 83.3897 38.1531 83.2236 37.9008C83.0581 37.6505 82.9329 37.3687 82.848 37.0553C82.7044 36.5257 82.7061 36.0196 82.8531 35.537C83.0001 35.0545 83.28 34.6303 83.693 34.2644C84.106 33.8986 84.64 33.6269 85.295 33.4493C85.95 33.2718 86.5481 33.2366 87.0893 33.3438C87.6305 33.451 88.0864 33.6758 88.457 34.018C88.8275 34.3603 89.0846 34.7963 89.2281 35.3259C89.3131 35.6393 89.3473 35.9457 89.3309 36.2453C89.315 36.5469 89.2492 36.8328 89.1336 37.1028C89.02 37.3723 88.8582 37.6159 88.6481 37.8334C88.4399 38.0504 88.1839 38.2305 87.8798 38.3737Z" fill="white" />
    <path d="M84.1022 42.8724L90.5296 42.57L90.6318 44.7417C90.6554 45.2439 90.589 45.6601 90.4326 45.9904C90.2783 46.3205 90.0562 46.57 89.7664 46.7388C89.4766 46.9076 89.1423 47.0009 88.7636 47.0188C88.3849 47.0366 88.0455 46.975 87.7453 46.8339C87.4451 46.6929 87.2038 46.4662 87.0213 46.154C86.841 45.8417 86.7391 45.4365 86.7157 44.9386L86.633 43.1811L87.336 43.148L87.4175 44.8804C87.4336 45.2235 87.4968 45.4973 87.6071 45.7018C87.7175 45.9084 87.8669 46.0545 88.0555 46.1399C88.2462 46.2274 88.4703 46.2651 88.7276 46.253C88.985 46.2409 89.2076 46.1822 89.3956 46.0769C89.5835 45.9716 89.7248 45.8108 89.8195 45.5946C89.9163 45.3783 89.9565 45.0964 89.9401 44.7491L89.8758 43.3808L84.1388 43.6507L84.1022 42.8724ZM87.1319 45.7619L84.319 47.4795L84.2765 46.5757L87.0905 44.8832L87.1319 45.7619Z" fill="white" />
    <path d="M86.4021 56.5117C85.7333 56.3965 85.1762 56.1761 84.7307 55.8507C84.2852 55.5252 83.9666 55.1292 83.775 54.6625C83.5833 54.1959 83.5341 53.6922 83.6273 53.1514C83.7205 52.6106 83.9355 52.1525 84.2723 51.7769C84.6091 51.4014 85.0418 51.1348 85.5706 50.9773C86.0993 50.8197 86.6981 50.7986 87.3669 50.9138C88.0356 51.0291 88.5928 51.2495 89.0383 51.5749C89.4838 51.9004 89.8024 52.2964 89.994 52.763C90.1857 53.2296 90.2349 53.7333 90.1417 54.2741C90.0485 54.8149 89.8335 55.2731 89.4967 55.6487C89.1599 56.0242 88.7272 56.2907 88.1984 56.4483C87.6696 56.6058 87.0709 56.627 86.4021 56.5117ZM86.5302 55.7686C87.0792 55.8633 87.5585 55.8513 87.9678 55.7327C88.3769 55.6161 88.7053 55.4187 88.953 55.1405C89.2004 54.8643 89.3572 54.5343 89.4234 54.1503C89.4895 53.7664 89.4524 53.4019 89.3121 53.0568C89.1715 52.7137 88.9281 52.4178 88.582 52.169C88.2356 51.9222 87.7879 51.7515 87.2388 51.6569C86.6897 51.5623 86.2107 51.5733 85.8017 51.6898C85.3923 51.8084 85.0639 52.0058 84.8165 52.282C84.5687 52.5602 84.4118 52.8913 84.3456 53.2752C84.2795 53.6591 84.3167 54.0226 84.4574 54.3657C84.5977 54.7108 84.8411 55.0068 85.1875 55.2535C85.5336 55.5023 85.9811 55.674 86.5302 55.7686Z" fill="white" />
    <path d="M82.2862 58.9603L88.2665 61.3349L87.9789 62.0591L82.6411 59.9396L81.5373 62.7195L80.8949 62.4644L82.2862 58.9603Z" fill="white" />
    <path d="M79.428 65.3236L84.8639 68.7663L84.447 69.4246L79.595 66.3517L77.9947 68.8785L77.4107 68.5087L79.428 65.3236Z" fill="white" />
    <path d="M79.7217 75.8625L74.8626 71.6446L75.3733 71.0561L80.2325 75.2741L79.7217 75.8625Z" fill="white" />
    <path d="M72.6715 82.3695L68.6012 77.3861L69.1852 76.9091L75.0966 78.6038L75.1453 78.5641L71.9494 74.6513L72.5529 74.1584L76.6232 79.1419L76.0392 79.6188L70.1101 77.9223L70.0615 77.9621L73.2652 81.8846L72.6715 82.3695Z" fill="white" />
    <path d="M63.7213 85.1723C63.8766 85.3317 64.042 85.4616 64.2175 85.5621C64.3919 85.6654 64.575 85.7365 64.7668 85.7752C64.9567 85.8149 65.1529 85.82 65.3554 85.7905C65.558 85.7609 65.7636 85.6949 65.9722 85.5923C66.3143 85.4242 66.582 85.1829 66.7752 84.8686C66.9685 84.5542 67.0633 84.1844 67.0596 83.7591C67.0559 83.3338 66.9312 82.8711 66.6855 82.3711C66.4397 81.8711 66.1486 81.4902 65.8122 81.2284C65.4759 80.9667 65.1214 80.8177 64.7488 80.7814C64.3762 80.7451 64.0114 80.8148 63.6542 80.9903C63.3234 81.1529 63.0667 81.3666 62.8841 81.6314C62.7005 81.899 62.602 82.1972 62.5885 82.5259C62.5741 82.8574 62.6537 83.1998 62.8274 83.5532L62.591 83.6134L64.3279 82.7597L64.6328 83.38L62.4334 84.461L62.1286 83.8407C61.8948 83.3651 61.793 82.9017 61.8233 82.4504C61.8516 82 61.9959 81.5907 62.256 81.2225C62.5151 80.857 62.874 80.5616 63.3327 80.3362C63.844 80.0849 64.3524 79.9843 64.8579 80.0346C65.3615 80.0858 65.8304 80.2801 66.2646 80.6175C66.697 80.9558 67.0628 81.4294 67.3622 82.0385C67.5867 82.4953 67.7275 82.936 67.7845 83.3608C67.8406 83.7883 67.8192 84.1862 67.7202 84.5546C67.6212 84.923 67.4513 85.2516 67.2105 85.5404C66.9696 85.8291 66.6641 86.0645 66.2937 86.2465C65.9892 86.3962 65.6827 86.4896 65.3743 86.5269C65.0649 86.5669 64.7657 86.5541 64.4767 86.4885C64.1867 86.4256 63.9154 86.3127 63.6626 86.1499C63.4108 85.9889 63.1898 85.7814 62.9995 85.5271L63.7213 85.1723Z" fill="white" />
    <path d="M51.1022 87.1604L51.0089 86.4755L53.7982 86.0953L53.8915 86.7801L51.1022 87.1604Z" fill="white" />
</svg>